<svg xmlns="http://www.w3.org/2000/svg" width="950" height="272.272" viewBox="0 0 950 272.272">
  <g id="Group_21" data-name="Group 21" transform="translate(-1432.174 177.759)">
    <g id="Group_22" data-name="Group 22" transform="translate(1432.174 -177.759)">
      <rect id="Rectangle_15" data-name="Rectangle 15" width="272.274" height="272.272" fill="none"/>
      <path id="Path_57" data-name="Path 57" d="M1704.231-41.72A136.012,136.012,0,0,1,1568.217,94.294,136.016,136.016,0,0,1,1432.2-41.72a136.019,136.019,0,0,1,136.02-136.014A136.015,136.015,0,0,1,1704.231-41.72Z" transform="translate(-1432.081 177.856)" fill="#fffcfc"/>
      <g id="Group_21-2" data-name="Group 21" transform="translate(62.435 3.165)">
        <path id="Path_58" data-name="Path 58" d="M1638.629-79.2a136.133,136.133,0,0,1-136.135,136.13,135.7,135.7,0,0,1-53.114-10.745l.029-.058,25.9-44.681a84.93,84.93,0,0,0,27.185,4.438A85.088,85.088,0,0,0,1587.578-79.2a84.6,84.6,0,0,0-9.862-39.789l28.02-48.95A135.6,135.6,0,0,1,1638.629-79.2Z" transform="translate(-1428.716 212.181)" fill="#e00c1a"/>
        <path id="Path_59" data-name="Path 59" d="M1600.839-152.832a135.43,135.43,0,0,0-52.717-24.272l-28.459,47.5L1445.1-2.745h101.513l33.019-53.123h-33.419l28.6-50.8Z" transform="translate(-1445.103 177.104)" fill="#e00c1a"/>
      </g>
    </g>
    <g id="Group_26" data-name="Group 26" transform="translate(1737.103 -112.276)">
      <g id="Group_23" data-name="Group 23" transform="translate(0.368)">
        <path id="Path_60" data-name="Path 60" d="M1511.231-164.2h13.71v45.039h36.873v12.189h-50.583Z" transform="translate(-1434.732 164.2)" fill="#f50000"/>
        <path id="Path_61" data-name="Path 61" d="M1537.069-129.477v10.316h38.4v12.189h-52.114V-164.2h52.114v12.078h-38.4v10.46h35.786v12.185Z" transform="translate(-1388.309 164.2)" fill="#f50000"/>
        <path id="Path_62" data-name="Path 62" d="M1572.719-164.2h18.946l-31.208,27.875,32.656,29.353h-20.395l-23.514-21.853v21.853h-13.72V-164.2h13.72v21.887Z" transform="translate(-1341.855 164.2)" fill="#f50000"/>
        <path id="Path_63" data-name="Path 63" d="M1569.135-129.544q-11.613,0-17.275-7.36a15.785,15.785,0,0,1-3.409-9.953,15.867,15.867,0,0,1,5.7-12.474c3.8-3.318,8.79-4.868,14.986-4.868h39.195v12.078h-39.05c-2.956,0-4.907,1.082-5.877,3.245a5.089,5.089,0,0,0-.435,2.019,4.761,4.761,0,0,0,3.047,4.544,7.9,7.9,0,0,0,3.265.652h19.892q11.1,0,16.835,7.065a16.127,16.127,0,0,1,3.632,10.315,15.68,15.68,0,0,1-5.66,12.4q-5.672,4.911-14.807,4.907h-40.721v-12.189h40.572q4.505,0,5.872-3.173a4.447,4.447,0,0,0,.444-1.946,4.775,4.775,0,0,0-2.9-4.544,7.856,7.856,0,0,0-3.414-.72Z" transform="translate(-1292.203 164.2)" fill="#f50000"/>
        <path id="Path_64" data-name="Path 64" d="M1620.878-164.2h13.72v57.228h-13.72l-30.188-37.79v37.79h-13.721V-164.2h13.721l30.188,36.24Z" transform="translate(-1182.997 164.2)" fill="#f50000"/>
        <path id="Path_65" data-name="Path 65" d="M1590.242-143.612h13.725v24.451h21.622q6.25,0,9.441-6.848a22.77,22.77,0,0,0,2.1-9.953q0-8.512-4.279-13.059a9.709,9.709,0,0,0-7.263-3.1h-35.347V-164.2h37.022a21.556,21.556,0,0,1,18.651,9.7,33.074,33.074,0,0,1,5.732,19.4q0,11.909-6.385,19.767-6.751,8.294-18,8.364h-37.022Z" transform="translate(-1132.17 164.2)" fill="#f50000"/>
        <path id="Path_66" data-name="Path 66" d="M1616.293-143.685h13.716v6.418h24.606a5.7,5.7,0,0,0,5.66-4.037,9.36,9.36,0,0,0,.652-3.458q0-4.4-2.98-6.423a6.222,6.222,0,0,0-3.332-.937h-38.322V-164.2h38.467c7.113,0,12.628,2.463,16.55,7.606a20.178,20.178,0,0,1,4.134,12.479,18.224,18.224,0,0,1-5.66,13.773,18.228,18.228,0,0,1-6.969,4.115l14.3,19.255h-16.187l-12.557-18.1h-18.361v18.1h-13.716Z" transform="translate(-1032.411 164.2)" fill="#f50000"/>
        <path id="Path_67" data-name="Path 67" d="M1617.859-129.477v10.316h38.4v12.189h-52.114V-164.2h52.114v12.078h-38.4v10.456h35.786v12.189Z" transform="translate(-1078.934 164.2)" fill="#f50000"/>
        <path id="Path_68" data-name="Path 68" d="M1550.41-106.048h14.516L1536.544-164h-13.79l-27.363,57.952h25.4l5.452-14.488h-11.116l14.813-28.915Z" transform="translate(-1495.391 164.966)" fill="#f50000"/>
        <path id="Path_69" data-name="Path 69" d="M1616.265-106.048h14.516L1602.4-164h-13.79l-27.363,57.952h25.4l5.452-14.488h-11.116l14.813-28.915Z" transform="translate(-1243.206 164.966)" fill="#f50000"/>
      </g>
      <g id="Group_25" data-name="Group 25" transform="translate(0 115.2)">
        <path id="Path_70" data-name="Path 70" d="M1574.186-140.346h14.788v57.233h-14.788l-32.541-37.046v37.046h-14.782v-57.233h14.782l32.541,36.665Z" transform="translate(-1374.504 140.346)" fill="#f50000"/>
        <path id="Path_71" data-name="Path 71" d="M1583.115-140.346h20.747l-34.182,28.459,35.767,28.773h-22.332l-25.755-21.418v21.418h-15.015v-57.233h15.015v22.587Z" transform="translate(-1315.213 140.346)" fill="#f50000"/>
        <path id="Path_72" data-name="Path 72" d="M1629.141-111.182q0,16.553-14.16,24.19c-6.307,3.4-14.077,3.878-23.306,3.878-11.32,0-20.289-1.521-26.9-6.988q-9.475-7.852-9.47-21.08,0-15.625,12.832-23.553c6.36-3.863,14.2-5.612,23.543-5.612,12.305,0,21.819,2.714,28.546,8.514Q1629.145-124.124,1629.141-111.182Zm-58.2,0q0,12.1,9.784,15.493a35.728,35.728,0,0,0,11.731,1.628q16.66,0,20.1-10.325a23.089,23.089,0,0,0,.937-6.795q0-13.793-13.136-16.478a40.17,40.17,0,0,0-7.9-.705q-15.1,0-19.477,7.78A19.576,19.576,0,0,0,1570.942-111.182Z" transform="translate(-1265.607 140.346)" fill="#f50000"/>
        <path id="Path_73" data-name="Path 73" d="M1591.2-83.113l-19.641-57.233h15.652l11.808,41.687,17.521-41.687h8.992l17.521,41.687,11.813-41.687h15.642l-20.1,57.233h-14.86L1621-117.4l-15.015,34.289Z" transform="translate(-1203.342 140.346)" fill="#f50000"/>
        <path id="Path_74" data-name="Path 74" d="M1616.131-105.237q-12.517,0-18.617-7.215a14.634,14.634,0,0,1-3.675-9.76,15.03,15.03,0,0,1,6.138-12.238,25.65,25.65,0,0,1,16.154-5.9h42.238v12.972h-42.083q-4.774,0-6.336,3.182a4.565,4.565,0,0,0-.469,1.98q0,3.042,3.284,4.453a9.274,9.274,0,0,0,3.521.638h21.438q11.96,0,18.139,6.93a14.905,14.905,0,0,1,3.912,10.117,14.865,14.865,0,0,1-6.1,12.165q-6.1,4.81-15.951,4.8h-43.885V-95.051h43.725c3.227,0,5.346-1.038,6.336-3.115a4.127,4.127,0,0,0,.464-1.908,4.662,4.662,0,0,0-3.135-4.457,9.1,9.1,0,0,0-3.666-.705Z" transform="translate(-1118.028 140.346)" fill="#f50000"/>
        <path id="Path_75" data-name="Path 75" d="M1650.677-140.346h20.418l-33.636,28.459,35.2,28.773h-21.983l-25.34-21.418v21.418h-14.783v-57.233h14.783v22.587Z" transform="translate(-1054.021 140.346)" fill="#f50000"/>
        <path id="Path_76" data-name="Path 76" d="M1625.825-140.346h14.788v57.233h-14.788Z" transform="translate(-995.542 140.346)" fill="#f50000"/>
        <g id="Group_24" data-name="Group 24" transform="translate(0 1.671)">
          <path id="Path_77" data-name="Path 77" d="M1548.834-140h-53.52l13.021,19.317h16.945L1521-125.512h40.408V-140Z" transform="translate(-1495.314 140)" fill="#f50000"/>
          <path id="Path_78" data-name="Path 78" d="M1546.852-123.265c0,2.956-2.9,5.477-5.814,7.558-3.757,2.589-9.364,3.878-15.464,3.878a28.793,28.793,0,0,1-5.737-.551c-5.365-1.062-8.93-3.376-10.335-6.935l-14.169,3.4a21.3,21.3,0,0,0,7.862,9.707q8.918,6.165,22.269,6.167c8.6,0,17.26-1.83,23.567-5.477,7.408-4.342,12.31-10.258,12.31-17.748V-136h-14.488Z" transform="translate(-1495.247 155.317)" fill="#f50000"/>
        </g>
        <path id="Path_79" data-name="Path 79" d="M1569.349-82.048h15.762L1554.3-140H1539.34l-29.7,57.952h27.571l5.909-14.488h-12.059l16.078-28.912Z" transform="translate(-1440.465 141.671)" fill="#f50000"/>
      </g>
    </g>
  </g>
</svg>
