<svg id="Group_40" data-name="Group 40" xmlns="http://www.w3.org/2000/svg" width="674" height="182.663" viewBox="0 0 674 182.663">
  <g id="Group_23" data-name="Group 23" transform="translate(0.384)">
    <path id="Path_60" data-name="Path 60" d="M1511.231-164.2h14.325v47.059h38.526v12.736h-52.851Z" transform="translate(-1431.302 164.2)" fill="#fffdfd"/>
    <path id="Path_61" data-name="Path 61" d="M1537.684-127.92v10.778h40.12v12.736h-54.451V-164.2H1577.8v12.62h-40.12v10.929h37.391v12.731Z" transform="translate(-1382.252 164.2)" fill="#fffdfd"/>
    <path id="Path_62" data-name="Path 62" d="M1574.389-164.2h19.8l-32.607,29.125,34.12,30.669h-21.309l-24.568-22.833v22.833h-14.336V-164.2h14.336v22.868Z" transform="translate(-1333.171 164.2)" fill="#fffdfd"/>
    <path id="Path_63" data-name="Path 63" d="M1570.063-127.99q-12.133,0-18.05-7.69a16.493,16.493,0,0,1-3.562-10.4,16.579,16.579,0,0,1,5.954-13.034c3.971-3.467,9.184-5.086,15.658-5.086h40.953v12.62h-40.8c-3.089,0-5.127,1.13-6.141,3.391a5.316,5.316,0,0,0-.454,2.109,4.975,4.975,0,0,0,3.184,4.748,8.25,8.25,0,0,0,3.411.681H1591q11.6,0,17.59,7.382a16.851,16.851,0,0,1,3.795,10.778,16.384,16.384,0,0,1-5.914,12.958q-5.926,5.132-15.471,5.127h-42.547v-12.736h42.391q4.707,0,6.135-3.315a4.646,4.646,0,0,0,.464-2.034,4.989,4.989,0,0,0-3.033-4.748,8.209,8.209,0,0,0-3.567-.752Z" transform="translate(-1280.711 164.2)" fill="#fffdfd"/>
    <path id="Path_64" data-name="Path 64" d="M1622.847-164.2h14.336v59.794h-14.336l-31.542-39.485v39.485h-14.336V-164.2h14.336l31.542,37.865Z" transform="translate(-1165.329 164.2)" fill="#fffdfd"/>
    <path id="Path_65" data-name="Path 65" d="M1590.242-142.689h14.341v25.548h22.591q6.531,0,9.864-7.155a23.79,23.79,0,0,0,2.2-10.4q0-8.893-4.471-13.644a10.144,10.144,0,0,0-7.588-3.239h-36.932V-164.2h38.682a22.522,22.522,0,0,1,19.488,10.132,34.557,34.557,0,0,1,5.99,20.27q0,12.443-6.671,20.653-7.054,8.666-18.806,8.74h-38.682Z" transform="translate(-1111.627 164.2)" fill="#fffdfd"/>
    <path id="Path_66" data-name="Path 66" d="M1616.293-142.765h14.331v6.706h25.709a5.959,5.959,0,0,0,5.914-4.218,9.781,9.781,0,0,0,.682-3.613q0-4.6-3.114-6.711a6.5,6.5,0,0,0-3.481-.979h-40.04V-164.2h40.192c7.432,0,13.195,2.573,17.292,7.947a21.083,21.083,0,0,1,4.319,13.039,19.041,19.041,0,0,1-5.913,14.391,19.045,19.045,0,0,1-7.281,4.3l14.941,20.118h-16.913l-13.12-18.912h-19.185v18.912h-14.331Z" transform="translate(-1006.226 164.2)" fill="#fffdfd"/>
    <path id="Path_67" data-name="Path 67" d="M1618.474-127.92v10.778h40.12v12.736h-54.451V-164.2h54.451v12.62h-40.12v10.924h37.391v12.736Z" transform="translate(-1055.38 164.2)" fill="#fffdfd"/>
    <path id="Path_68" data-name="Path 68" d="M1552.877-103.449h15.167L1538.389-164h-14.408l-28.59,60.551h26.541l5.7-15.138h-11.614l15.478-30.212Z" transform="translate(-1495.391 165.009)" fill="#fffdfd"/>
    <path id="Path_69" data-name="Path 69" d="M1618.732-103.449H1633.9L1604.245-164h-14.408l-28.59,60.551h26.541l5.7-15.138h-11.614l15.478-30.212Z" transform="translate(-1228.943 165.009)" fill="#fffdfd"/>
  </g>
  <g id="Group_25" data-name="Group 25" transform="translate(0 120.366)">
    <path id="Path_70" data-name="Path 70" d="M1576.308-140.346h15.451v59.8h-15.451l-34-38.707v38.707h-15.445v-59.8h15.445l34,38.309Z" transform="translate(-1367.671 140.346)" fill="#fffdfd"/>
    <path id="Path_71" data-name="Path 71" d="M1584.944-140.346h21.677l-35.715,29.736,37.371,30.064h-23.333l-26.91-22.379v22.379h-15.688v-59.8h15.688v23.6Z" transform="translate(-1305.027 140.346)" fill="#fffdfd"/>
    <path id="Path_72" data-name="Path 72" d="M1632.452-109.874q0,17.3-14.795,25.275c-6.589,3.547-14.708,4.052-24.351,4.052-11.828,0-21.2-1.59-28.111-7.3q-9.9-8.2-9.895-22.026,0-16.326,13.407-24.609c6.646-4.037,14.84-5.863,24.6-5.863,12.857,0,22.8,2.836,29.827,8.9Q1632.457-123.4,1632.452-109.874Zm-60.809,0q0,12.64,10.223,16.187a37.33,37.33,0,0,0,12.257,1.7q17.407,0,21-10.788a24.124,24.124,0,0,0,.979-7.1q0-14.411-13.725-17.217a41.97,41.97,0,0,0-8.255-.737q-15.774,0-20.35,8.129A20.455,20.455,0,0,0,1571.643-109.874Z" transform="translate(-1252.616 140.346)" fill="#fffdfd"/>
    <path id="Path_73" data-name="Path 73" d="M1592.081-80.546l-20.521-59.8h16.354l12.337,43.557,18.307-43.557h9.395l18.307,43.557,12.343-43.557h16.343l-21,59.8h-15.526l-15.2-35.826-15.688,35.826Z" transform="translate(-1186.829 140.346)" fill="#fffdfd"/>
    <path id="Path_74" data-name="Path 74" d="M1617.131-103.662q-13.078,0-19.452-7.539a15.29,15.29,0,0,1-3.84-10.2,15.7,15.7,0,0,1,6.414-12.786,26.8,26.8,0,0,1,16.879-6.161h44.132v13.553h-43.97q-4.988,0-6.62,3.325a4.77,4.77,0,0,0-.49,2.069q0,3.179,3.432,4.652a9.689,9.689,0,0,0,3.678.666h22.4q12.5,0,18.953,7.241a15.573,15.573,0,0,1,4.087,10.571,15.532,15.532,0,0,1-6.373,12.711q-6.373,5.026-16.667,5.011h-45.853V-93.02h45.686c3.371,0,5.586-1.085,6.62-3.255a4.313,4.313,0,0,0,.485-1.993,4.871,4.871,0,0,0-3.275-4.657,9.511,9.511,0,0,0-3.83-.737Z" transform="translate(-1096.689 140.346)" fill="#fffdfd"/>
    <path id="Path_75" data-name="Path 75" d="M1652.476-140.346h21.334l-35.145,29.736,36.78,30.064h-22.969L1626-102.925v22.379h-15.446v-59.8H1626v23.6Z" transform="translate(-1029.062 140.346)" fill="#fffdfd"/>
    <path id="Path_76" data-name="Path 76" d="M1625.825-140.346h15.451v59.8h-15.451Z" transform="translate(-967.276 140.346)" fill="#fffdfd"/>
    <g id="Group_24" data-name="Group 24" transform="translate(0 1.746)">
      <path id="Path_77" data-name="Path 77" d="M1551.234-140h-55.92l13.605,20.184h17.705l-4.474-5.046h42.22V-140Z" transform="translate(-1495.314 140)" fill="#fffdfd"/>
      <path id="Path_78" data-name="Path 78" d="M1549.162-122.694c0,3.088-3.027,5.722-6.075,7.9-3.926,2.7-9.784,4.052-16.157,4.052a30.086,30.086,0,0,1-5.994-.575c-5.606-1.11-9.33-3.527-10.8-7.246l-14.8,3.552a22.256,22.256,0,0,0,8.214,10.142q9.318,6.441,23.267,6.444c8.987,0,18.034-1.912,24.624-5.722,7.74-4.536,12.862-10.718,12.862-18.544V-136h-15.138Z" transform="translate(-1495.243 156.184)" fill="#fffdfd"/>
    </g>
    <path id="Path_79" data-name="Path 79" d="M1572.027-79.449H1588.5L1556.308-140h-15.635l-31.035,60.551h28.807l6.174-15.138h-12.6l16.8-30.209Z" transform="translate(-1437.363 141.746)" fill="#fffdfd"/>
  </g>
</svg>
