<svg xmlns="http://www.w3.org/2000/svg" width="87.009" height="86.984" viewBox="0 0 87.009 86.984">
  <g id="Group_13" data-name="Group 13" transform="translate(-1125.016 -257.15)">
    <path id="Path_1" data-name="Path 1" d="M1211.961,300.622a43.473,43.473,0,1,1-43.472-43.472A43.472,43.472,0,0,1,1211.961,300.622Z" fill="#fffdfd"/>
    <g id="Group_1" data-name="Group 1" transform="translate(1144.933 258.122)">
      <path id="Path_2" data-name="Path 2" d="M1339.99,373.542a43.54,43.54,0,0,1-60.488,40.076l.01-.02,8.279-14.279a27.205,27.205,0,0,0,32.73-38.495l8.955-15.644A43.329,43.329,0,0,1,1339.99,373.542Z" transform="translate(-1272.898 -331.041)" fill="#f50000"/>
      <path id="Path_3" data-name="Path 3" d="M1290.809,270.572a43.3,43.3,0,0,0-16.848-7.758l-9.1,15.229-23.83,40.6h32.446l10.552-16.824H1273.35l9.141-16.365Z" transform="translate(-1241.033 -262.814)" fill="#f50000"/>
    </g>
  </g>
</svg>
